<svg xmlns="http://www.w3.org/2000/svg" width="139.72px" height="41.08px" viewBox="0 0 465.2 134.5">
  <title>Intempt_Whale_Logotype_Black</title>
  <g id="Layer_2" data-name="Layer 2">
    <g id="Layer_1-2" data-name="Layer 1">
      <g>
        <path d="M3.7,107.3a2.6,2.6,0,0,1-2.6-2.7l.2-69.6c-.1-1.4.8-2.1,2.2-2.1H20a2.5,2.5,0,0,1,2.7,2.6L22.6,105a2.1,2.1,0,0,1-2.3,2.3ZM22.3,11.1A11.1,11.1,0,1,1,11.1,0,11.1,11.1,0,0,1,22.3,11.1Z" style="opacity: 0.68"/>
        <path d="M40.6,107.3a2.6,2.6,0,0,1-2.8-2.7l.3-65.5a2.8,2.8,0,0,1,1.7-2.6A77.9,77.9,0,0,1,68,30.8c21.6,0,33.8,13.8,33.7,34.1l-.2,40.1a2.1,2.1,0,0,1-2.3,2.3H82.8a2.8,2.8,0,0,1-2.8-2.7V62.7c.1-9-3.7-13.2-11.3-13.2a21.5,21.5,0,0,0-8.9,1.7V105a2,2,0,0,1-2.3,2.3Z" style="opacity: 0.68"/>
        <path d="M137.3,52.7V80.3c0,6.4,2.9,9.9,8.7,9.9h3.9c1.7-.1,2.8.6,2.7,2.4V106c0,1.4-.6,2.3-2,2.4a37.5,37.5,0,0,1-7.2.7c-15.9,0-27.7-9.6-27.7-30.5V17.2a2.1,2.1,0,0,1,2.3-2.3h14a2.7,2.7,0,0,1,2.9,2.6l2.1,17h11.5a2.6,2.6,0,0,1,2.8,2.7V50.4a2,2,0,0,1-2.3,2.3Z"/>
        <path d="M191.6,30.8c18.3,0,33.1,9.7,32.9,30.8V75.5a2,2,0,0,1-2.2,2.1H182.4v2c-.1,7.6,4,11.3,11.9,11.3a32.2,32.2,0,0,0,17.6-5.7c1.3-1,2.4-.9,3.4.7l7.8,11c.8,1.4.9,2.7-.3,3.4-6.8,5.3-15.9,8.7-28.4,8.7-18.8,0-33.8-11.5-33.8-30.1V58.3C160.9,39.5,174.3,30.8,191.6,30.8Zm11.9,28.9c0-5.7-3.3-10.7-10.6-10.7s-10.2,3.7-10.3,10.5v3.9h20.9Z"/>
        <path d="M304.8,30.8c19.8,0,32.3,14.6,32.5,35l-.3,39.3a2,2,0,0,1-2.2,2.3H318.6a2.7,2.7,0,0,1-2.8-2.7V62.7c0-9.2-4-13.2-10.9-13.2a18.2,18.2,0,0,0-9.1,2.6A41.2,41.2,0,0,1,298,65.7l-.2,39.3a2,2,0,0,1-2.2,2.3H279.4a2.6,2.6,0,0,1-2.8-2.7V62.7c0-9.2-3.7-13.2-10.2-13.2a17.8,17.8,0,0,0-8,1.7l-.4,53.7c0,1.6-.7,2.3-2.2,2.3H239.5a2.5,2.5,0,0,1-2.6-2.7l.5-65.5a2.8,2.8,0,0,1,1.7-2.6,67.9,67.9,0,0,1,26.8-5.7,32.5,32.5,0,0,1,18.8,5.7A40.1,40.1,0,0,1,304.8,30.8Z"/>
        <path d="M381.1,30.9c20.6,0,34.5,14,34.6,33.2V80.6c.1,16.9-11.1,28.5-28.1,28.5a32.3,32.3,0,0,1-14.4-3.2v26.2a2,2,0,0,1-2.2,2.3H354.2a2.5,2.5,0,0,1-2.6-2.7V39.4a2.9,2.9,0,0,1,1.6-2.6C360.9,33.1,371.5,30.9,381.1,30.9Zm12.7,31.7c.1-9.3-3.7-12.9-11.4-12.9a19.1,19.1,0,0,0-9.1,2.1V88.2a18.5,18.5,0,0,0,9.6,2.7c7.3,0,11-4.3,11-13.2Z"/>
        <path d="M449.8,52.7V80.3c0,6.4,2.9,9.9,8.7,9.9h3.9c1.7-.1,2.8.6,2.7,2.4V106c0,1.4-.6,2.3-2,2.4a37.5,37.5,0,0,1-7.2.7c-15.9,0-27.7-9.6-27.7-30.5V17.2a2.1,2.1,0,0,1,2.3-2.3h14a2.7,2.7,0,0,1,2.9,2.6l2.1,17h11.5a2.6,2.6,0,0,1,2.8,2.7V50.4a2,2,0,0,1-2.3,2.3Z"/>
      </g>
    </g>
  </g>
</svg>
